<?xml version="1.0" encoding="UTF-8"?>
<svg width="48px" height="48px" viewBox="0 0 48 48" version="1.1" xmlns="http://www.w3.org/2000/svg" xmlns:xlink="http://www.w3.org/1999/xlink">
    <title>touchbar-icon</title>
    <g id="touchbar-icon" stroke="none" stroke-width="1" fill="none" fill-rule="evenodd">
        <rect id="Rectangle" stroke="#000000" fill="#424242" x="2.5" y="9.5" width="43" height="11" rx="2"></rect>
        <g id="buttons" transform="translate(4.000000, 11.000000)" fill="#5A5A5A">
            <rect id="Rectangle" x="0" y="0" width="12" height="8" rx="2"></rect>
            <rect id="Rectangle-Copy" x="14" y="0" width="12" height="8" rx="1"></rect>
            <rect id="Rectangle-Copy-2" x="28" y="0" width="12" height="8" rx="1"></rect>
        </g>
        <g id="hand" transform="translate(2.500000, 2.000000)">
            <g id="hand-fill" transform="translate(0.000000, 0.500000)">
                <path d="M19.877565,43 C23.4808362,43 25.8549812,43 27,43 C29,43 38,41 38,33 C38,27.8796369 38,23.6810045 38,20.4041029 C38.0000107,20.0403494 37.9503932,19.6782957 37.8525302,19.3279539 C37.4190099,17.7759846 36.4681665,17 35,17 C33.6666667,17 33,18 33,20 C33,16 32,14 30,14 C28,14 27,15 27,17 C27,14.3333333 26,13 24,13 C22,13 21,14.3333333 21,17 L21,4 C21,1.33333333 20,0 18,0 C16,0 15,1.33333333 15,4 L15,27.763932 C15,28.8685015 14.1045695,29.763932 13,29.763932 C12.6895098,29.763932 12.3832837,29.6916418 12.1055728,29.5527864 L5,26 L5,26 C3,25.3333333 1.66666667,25.6666667 1,27 C-3.33066907e-15,29 1.0020012,30.0020012 3,32 C4.25184981,33.2518498 8.73590099,36.560555 16.4521535,41.9261157 C17.4576091,42.6252602 18.6529247,43 19.877565,43 Z" id="Path" fill="#FFFFFF"></path>
                <path d="M35.778009,17.0833867 C36.8095513,17.3215229 37.5010584,18.0697119 37.8525302,19.3279539 C37.9503932,19.6782957 38.0000107,20.0403494 38,20.4041029 L38,20.4041029 L38,33 C38,41 29,43 27,43 L27,43 L19.877565,43 C18.6529247,43 17.4576091,42.6252602 16.4521535,41.9261157 C8.73590099,36.560555 4.25184981,33.2518498 3,32 C1.0020012,30.0020012 -3.33066907e-15,29 1,27 L0.96084414,27.0806669 C0.985135826,27.3210055 1,27.6218287 1,28 C1,29.9219177 6.54065149,33.9985332 17.6219545,40.2298465 C18.5198797,40.7347668 19.5326812,41 20.5628337,41 L26,41 L26,41 C28,41 36,39 36,31 L36,18.4041029 L36,18.4041029 C36.0000107,18.0403494 35.9503932,17.6782957 35.8525302,17.3279539 L35.7902073,17.1211315 L35.7902073,17.1211315 Z" id="Combined-Shape" fill="#DFDFDF"></path>
            </g>
            <path d="M18,0 C15.6875,0 14.5,1.58333333 14.5,4.5 L14.5,28.263932 C14.5,29.0923591 13.8284271,29.763932 13,29.763932 C12.7671324,29.763932 12.5374628,29.7097144 12.3291796,29.6055728 L5.2236068,26.0527864 C2.94554155,25.2881342 1.34711222,25.6877416 0.552786405,27.2763932 C0.000493636695,28.3809787 -0.0340457357,29.3013534 0.429877075,30.2270342 L0.539601868,30.4337768 C0.863257979,31.0086585 1.3166727,31.5178891 2.44096737,32.6476101 L2.80218402,33.0044503 C4.26623762,34.3845972 8.70352983,37.6470453 16.1667026,42.8366248 C17.2559493,43.5940337 18.5508744,44 19.877565,44 L27,44 C28.5657497,44 31.3391319,43.2296161 33.5072479,41.9287465 C36.6338728,40.0527715 38.5,37.2535807 38.5,33.5 L38.5,20.9041029 C38.5,20.4948987 38.4441947,20.0875831 38.3340952,19.6934356 C37.8420623,17.931996 36.7000523,17 35,17 L34.8250479,17.0047957 C34.1951322,17.0399191 33.6925679,17.2674788 33.318141,17.6711375 L33.288,17.706 L33.2864563,17.6953246 C32.8576335,15.2708495 31.777767,14 30,14 L29.7758997,14.0040732 C28.5994734,14.0474864 27.7239903,14.4373924 27.1754788,15.1477629 L27.156,15.173 L27.1064815,15.037037 C26.5833333,13.7037037 25.5416667,13 24,13 L23.7928736,13.0043548 C22.840763,13.0449676 22.0914726,13.3691877 21.5497746,13.9579264 L21.5,14.014 L21.5,4.5 C21.5,1.58333333 20.3125,0 18,0 Z M32.4978711,20.1827123 L32.5,20.499 L33.5,20.5 C33.5,18.7435171 33.9956781,18 35,18 C36.2362807,18 36.9959575,18.6199733 37.3709652,19.9624721 C37.456597,20.2690273 37.5,20.5858197 37.5,20.9040881 L37.5,33.5 C37.5,36.8714193 35.8383494,39.3638952 32.9927521,41.0712535 C30.9798336,42.2790046 28.3842503,43 27,43 L19.877565,43 C18.75498,43 17.6592729,42.6564896 16.7376025,42.0156051 L13.1635065,39.5144909 C7.77468556,35.7157826 4.51779486,33.2740363 3.42472732,32.2164122 L2.81491457,31.6035531 C1.90366749,30.6751176 1.5659983,30.2620799 1.32388572,29.7789845 C1.00789573,29.148479 1.03005802,28.557918 1.4472136,27.7236068 C1.98622111,26.6455918 3.05445845,26.3785324 4.84188612,26.9743416 L11.881966,30.5 C12.2291046,30.6735693 12.6118873,30.763932 13,30.763932 C14.3807119,30.763932 15.5,29.6446439 15.5,28.263932 L15.5,4.5 C15.5,2.08333333 16.3125,1 18,1 C19.6875,1 20.5,2.08333333 20.5,4.5 L20.5,17.5 L21.5,17.5 C21.5,15.0833333 22.3125,14 24,14 C25.6293103,14 26.4429251,15.0099088 26.4970991,17.254746 L26.5,17.5 L27.5,17.5 C27.5,15.7761424 28.2761424,15 30,15 L30.1378217,15.0042694 C31.6333491,15.0982686 32.4510639,16.7467828 32.4978711,20.1827123 Z" id="Path" fill="#2A2A2A" fill-rule="nonzero"></path>
        </g>
    </g>
</svg>